<svg xmlns="http://www.w3.org/2000/svg" viewBox="0 0 340 80">
  <defs>
    <linearGradient id="eo-cyan" x1="0%" y1="0%" x2="100%" y2="100%">
      <stop offset="0%" stop-color="#74c4dc"/>
      <stop offset="100%" stop-color="#3a7a8d"/>
    </linearGradient>
    <linearGradient id="eo-purple" x1="0%" y1="0%" x2="100%" y2="100%">
      <stop offset="0%" stop-color="#a18bff"/>
      <stop offset="100%" stop-color="#5d3fd3"/>
    </linearGradient>
  </defs>

  <!-- Dark-theme variant: same chevrons, light wordmark. -->
  <g transform="translate(8, 13) scale(0.28)">
    <path d="M 15 40 L 75 100 L 15 160 L 50 160 L 110 100 L 50 40 Z"
          fill="#2e4750" opacity="0.7"/>
    <path d="M 40 40 L 100 100 L 40 160 L 75 160 L 135 100 L 75 40 Z"
          fill="#4a8fa3"/>
    <path d="M 65 40 L 125 100 L 65 160 L 100 160 L 160 100 L 100 40 Z"
          fill="url(#eo-cyan)"/>
    <path d="M 90 40 L 150 100 L 90 160 L 125 160 L 185 100 L 125 40 Z"
          fill="url(#eo-purple)" opacity="0.55"/>
    <path d="M 115 40 L 175 100 L 115 160 L 150 160 L 210 100 L 150 40 Z"
          fill="url(#eo-purple)"/>
  </g>

  <text x="78" y="54" font-family="system-ui, -apple-system, sans-serif"
        font-size="38" font-weight="600" fill="#e2e8f0">
    Entry<tspan fill="url(#eo-purple)">Ops</tspan>
  </text>
</svg>
